<?xml version="1.0" encoding="UTF-8"?>
<svg id="Calque_2" data-name="Calque 2" xmlns="http://www.w3.org/2000/svg" viewBox="0 0 132.2 132.2">
  <defs>
    <style>
      .cls-1 {
        fill: #ffe91a;
      }

      .cls-2 {
        fill: #2e284c;
      }

      .cls-3 {
        fill: #4ae4f4;
      }

      .cls-4 {
        fill: #ab8dff;
      }

      .cls-5 {
        fill: #ff2eab;
      }

      .cls-6 {
        fill: #00d8ae;
      }
    </style>
  </defs>
  <g id="Calque_1-2" data-name="Calque 1">
    <rect class="cls-2" width="132.2" height="132.2" rx="20.8" ry="20.8"/>
    <g>
      <g>
        <polygon class="cls-4" points="71.02 97.96 69.31 97.36 79.99 66.73 82.1 50.43 70.44 50.43 56.59 76.02 59.84 78.78 60.12 97.66 58.3 97.69 58.03 79.63 54.29 76.45 69.36 48.61 84.17 48.61 81.73 67.24 71.02 97.96"/>
        <g>
          <g>
            <path class="cls-4" d="m89.14,65.78l-11.06,6.42-8.57,24.58,1.71.6,6.89-19.76,2.86,8.28-6.27,11.33,1.59.88,6.31-11.4,9.64-3.94-12.53,14.3,1.37,1.2,18.1-20.66-10.03-11.82Zm-9.57,7.65l7.54-4.38-5.4,13.47-2.65-7.67.5-1.42Zm2.85,11.13l.31.13-.24.1-.08-.22Zm.4.09l6.4-15.97,7.55,8.9-1.86,2.12-12.09,4.94Z"/>
            <path class="cls-4" d="m76.13,62.04l6.18-2.63-.71-1.67-6.66,2.84-4.19-11.37-1.7.63,2.15,5.84-11.17,36.25-.19-13.15-11.78-9.99-8.5,14.17,4.68,14.99,1.73-.54-4.04-12.94,7.04,2.22,2.44,11.18,1.77-.39-2.42-11.12,7.3-5.38.25,16.71h.91s.87.25.87.25l.38-1.23.18.08,15.5-34.75Zm-27.62,9.52l8.96,7.6-7.9,5.82-7.66-2.42,6.6-11Zm23.72-13.07l1.58,4.29-9.4,21.07,7.82-25.36Z"/>
          </g>
          <path class="cls-3" d="m66.64,34.16c-19.97,0-36.21,16.24-36.21,36.21,0,11.32,5.11,21.42,14.39,28.43l.4.3,1.7-2.25-.4-.3c-8.56-6.46-13.27-15.76-13.27-26.18,0-18.42,14.98-33.4,33.4-33.4s33.4,14.98,33.4,33.4c0,10.32-4.98,19.61-14.01,26.16l-.4.29,1.65,2.28.4-.29c9.79-7.1,15.17-17.2,15.17-28.44,0-19.97-16.24-36.21-36.21-36.21Z"/>
        </g>
      </g>
      <path class="cls-5" d="m56.03,59.9h-.65c-.23,0-.42-.19-.42-.42v-.57c0-.23-.19-.42-.42-.42h-.49c-.23,0-.42.19-.42.42v.57c0,.23-.19.42-.42.42h-.65c-.23,0-.42.19-.42.42v.44c0,.23.19.42.42.42h.65c.23,0,.42.19.42.42v.57c0,.23.19.42.42.42h.49c.23,0,.42-.19.42-.42v-.57c0-.23.19-.42.42-.42h.65c.23,0,.42-.19.42-.42v-.44c0-.23-.19-.42-.42-.42Z"/>
      <path class="cls-6" d="m52.76,48.07h-1.14c-.41,0-.74-.33-.74-.74v-1.01c0-.41-.33-.74-.74-.74h-.87c-.41,0-.74.33-.74.74v1.01c0,.41-.33.74-.74.74h-1.14c-.41,0-.74.33-.74.74v.78c0,.41.33.74.74.74h1.14c.41,0,.74.33.74.74v1.01c0,.41.33.74.74.74h.87c.41,0,.74-.33.74-.74v-1.01c0-.41.33-.74.74-.74h1.14c.41,0,.74-.33.74-.74v-.78c0-.41-.33-.74-.74-.74Z"/>
      <path class="cls-4" d="m77.01,18.2l-.81-.81c-.29-.29-.29-.76,0-1.05l.71-.71c.29-.29.29-.76,0-1.05l-.62-.62c-.29-.29-.76-.29-1.05,0l-.71.71c-.29.29-.76.29-1.05,0l-.81-.81c-.29-.29-.76-.29-1.05,0l-.55.55c-.29.29-.29.76,0,1.05l.81.81c.29.29.29.76,0,1.05l-.71.71c-.29.29-.29.76,0,1.05l.62.62c.29.29.76.29,1.05,0l.71-.71c.29-.29.76-.29,1.05,0l.81.81c.29.29.76.29,1.05,0l.55-.55c.29-.29.29-.76,0-1.05Z"/>
      <path class="cls-1" d="m102.58,31.11l-1.29-1.29c-.46-.46-.46-1.22,0-1.68l1.13-1.13c.46-.46.46-1.22,0-1.68l-.98-.98c-.46-.46-1.22-.46-1.68,0l-1.13,1.13c-.46.46-1.22.46-1.68,0l-1.29-1.29c-.46-.46-1.22-.46-1.68,0l-.88.88c-.46.46-.46,1.22,0,1.68l1.29,1.29c.46.46.46,1.22,0,1.68l-1.13,1.13c-.46.46-.46,1.22,0,1.68l.98.98c.46.46,1.22.46,1.68,0l1.13-1.13c.46-.46,1.22-.46,1.68,0l1.29,1.29c.46.46,1.22.46,1.68,0l.88-.88c.46-.46.46-1.22,0-1.68Z"/>
      <rect class="cls-5" x="35.44" y="95.92" width="62.4" height="8.85" rx="4.43" ry="4.43"/>
    </g>
  </g>
</svg>