<?xml version="1.0" encoding="UTF-8"?>
<svg id="Calque_2" data-name="Calque 2" xmlns="http://www.w3.org/2000/svg" viewBox="0 0 132.2 132.2">
  <defs>
    <style>
      .cls-1 {
        fill: #ffe91a;
      }

      .cls-2 {
        fill: #2e284c;
      }

      .cls-3 {
        fill: #4ae4f4;
      }

      .cls-4 {
        fill: #ab8dff;
      }

      .cls-5 {
        fill: #ff2eab;
      }

      .cls-6 {
        fill: #00d8ae;
      }
    </style>
  </defs>
  <g id="Calque_1-2" data-name="Calque 1">
    <rect class="cls-2" width="132.2" height="132.2" rx="20.8" ry="20.8"/>
    <g>
      <path class="cls-3" d="m107.81,64.29h0c-.95-.68-1.85-1.47-2.66-2.33-6.54-7.02-6.15-18.05.87-24.59,2.46-2.29,5.45-3.79,8.72-4.39.83-.15,1.42-.9,1.34-1.74v-.05c-.09-.92-.94-1.6-1.86-1.44-3.91.69-7.49,2.48-10.43,5.22-8.34,7.77-8.8,20.87-1.03,29.21.93,1,1.97,1.91,3.07,2.7h0c.94.7,1.82,1.5,2.61,2.38,6.4,7.14,5.8,18.17-1.34,24.57-4.9,4.39-11.75,5.63-17.81,3.31-.79-.3-1.69.03-2.05.79l-.02.04c-.41.85,0,1.87.89,2.21,2.4.92,4.91,1.37,7.4,1.37,4.98,0,9.9-1.81,13.78-5.29,8.49-7.61,9.2-20.7,1.59-29.19-.93-1.03-1.96-1.97-3.06-2.8Z"/>
      <path class="cls-1" d="m74.54,60.06c-.13-1.29-.38-2.55-.75-3.77l4.15-11.71c.35-.99.15-2.06-.53-2.86-.68-.8-1.71-1.16-2.74-.97l-12.86,2.38c-4.98-2.02-10.66-1.98-15.58.07l-13.26-2.45c-1.04-.19-2.06.17-2.74.97-.68.8-.88,1.87-.53,2.86l4.49,12.67c-.4,1.63-.61,3.29-.61,4.92,0,5.67,2.38,11.14,6.53,15.02,1.5,1.4,3.19,2.57,5.02,3.46v9.59c-.99-.39-2.03-.59-3.09-.59-4.66,0-8.46,3.79-8.46,8.46v9.44h16.91v-9.44c0-2.43-1.04-4.73-2.87-6.34v-10.1c2.54.84,5.22,1.18,7.94.99,10.11-.7,18.29-8.85,19.03-18.96.02-.29.03-.58.04-.87,6.72,3.11,11.02,9.81,11.02,17.25v21.78h-16.36v-3.76c0-4.66-3.79-8.46-8.46-8.46s-8.46,3.79-8.46,8.46v9.44h16.91v-3.19h18.86v-24.28c0-8.79-5.46-16.8-13.62-20.02Zm-26.54,44.98h-3.77v-5.84h-2.5v5.84h-1.9v-5.84h-2.5v5.84h-1.25v-6.94c0-3.29,2.67-5.96,5.96-5.96s5.96,2.67,5.96,5.96v6.94Zm27.52-61.7c.07.08.14.22.07.4l-4,11.29-.77.29.15.4c.95,2.48,1.33,5.1,1.13,7.78-.64,8.88-7.83,16.03-16.71,16.65-5.07.35-9.9-1.36-13.59-4.8-3.64-3.4-5.73-8.21-5.73-13.19,0-1.82.27-3.61.8-5.34l.13-.41-.52-.16-4.44-12.52c-.07-.18,0-.32.07-.4.07-.08.2-.17.39-.14l13.04,2.41.26.53.39-.19c2.48-1.21,5.14-1.83,7.92-1.83,2.39,0,4.7.46,6.89,1.36l.06.31,14.06-2.6c.2-.03.32.05.39.14Zm-14.67,48.8c3.29,0,5.96,2.67,5.96,5.96v6.94h-3.93v-5.84h-2.5v5.84h-1.9v-5.84h-2.5v5.84h-1.09v-6.94c0-3.29,2.67-5.96,5.96-5.96Z"/>
      <path class="cls-6" d="m40.3,63.87s3.73-6.38,9.33,0h-9.33Z"/>
      <path class="cls-6" d="m56.37,63.87s3.73-6.38,9.33,0h-9.33Z"/>
      <circle class="cls-5" cx="51.99" cy="68.37" r="1.89"/>
      <path class="cls-5" d="m29.61,79.36h-1.19c-.43,0-.78-.35-.78-.78v-1.05c0-.43-.35-.78-.78-.78h-.91c-.43,0-.78.35-.78.78v1.05c0,.43-.35.78-.78.78h-1.19c-.43,0-.78.35-.78.78v.82c0,.43.35.78.78.78h1.19c.43,0,.78.35.78.78v1.05c0,.43.35.78.78.78h.91c.43,0,.78-.35.78-.78v-1.05c0-.43.35-.78.78-.78h1.19c.43,0,.78-.35.78-.78v-.82c0-.43-.35-.78-.78-.78Z"/>
      <path class="cls-3" d="m21.3,65.28h-1.78c-.64,0-1.16-.52-1.16-1.16v-1.57c0-.64-.52-1.16-1.16-1.16h-1.36c-.64,0-1.16.52-1.16,1.16v1.57c0,.64-.52,1.16-1.16,1.16h-1.78c-.64,0-1.16.52-1.16,1.16v1.22c0,.64.52,1.16,1.16,1.16h1.78c.64,0,1.16.52,1.16,1.16v1.57c0,.64.52,1.16,1.16,1.16h1.36c.64,0,1.16-.52,1.16-1.16v-1.57c0-.64.52-1.16,1.16-1.16h1.78c.64,0,1.16-.52,1.16-1.16v-1.22c0-.64-.52-1.16-1.16-1.16Z"/>
      <path class="cls-4" d="m88.99,26.77h-1.19c-.43,0-.78-.35-.78-.78v-1.05c0-.43-.35-.78-.78-.78h-.91c-.43,0-.78.35-.78.78v1.05c0,.43-.35.78-.78.78h-1.19c-.43,0-.78.35-.78.78v.82c0,.43.35.78.78.78h1.19c.43,0,.78.35.78.78v1.05c0,.43.35.78.78.78h.91c.43,0,.78-.35.78-.78v-1.05c0-.43.35-.78.78-.78h1.19c.43,0,.78-.35.78-.78v-.82c0-.43-.35-.78-.78-.78Z"/>
    </g>
  </g>
</svg>