<?xml version="1.0" encoding="UTF-8"?>
<svg id="Calque_2" data-name="Calque 2" xmlns="http://www.w3.org/2000/svg" viewBox="0 0 132.2 132.2">
  <defs>
    <style>
      .cls-1 {
        fill: #ffe91a;
      }

      .cls-2 {
        fill: #2e284c;
      }

      .cls-3 {
        fill: #4ae4f4;
      }

      .cls-4 {
        fill: #ab8dff;
      }

      .cls-5 {
        fill: #ff2eab;
      }

      .cls-6 {
        fill: #00d8ae;
      }
    </style>
  </defs>
  <g id="Calque_1-2" data-name="Calque 1">
    <rect class="cls-2" x="0" width="132.2" height="132.2" rx="20.8" ry="20.8"/>
    <g>
      <rect class="cls-4" x="23.35" y="45.78" width="3.35" height="44.22" rx="1.56" ry="1.56"/>
      <rect class="cls-4" x="108.07" y="45.78" width="3.35" height="44.22" rx="1.56" ry="1.56"/>
      <rect class="cls-5" x="32.1" y="49.82" width="10.82" height="34.13"/>
      <rect class="cls-6" x="47.33" y="51.43" width="6.62" height="7.49"/>
      <rect class="cls-3" x="47.33" y="62.7" width="11.82" height="6.92"/>
      <rect class="cls-5" x="77.38" y="53.36" width="17.37" height="1.81"/>
      <rect class="cls-5" x="80.52" y="58.92" width="16.23" height="2.17"/>
      <rect class="cls-5" x="72.65" y="66.16" width="27.23" height="3.46"/>
      <g>
        <path class="cls-1" d="m54.92,94.23h-23.32v2.21h23.37c.39,0,3.97-.02,5.29,1.61.37.46.51,1.01.44,1.72l-.05.48,2.05.28.06-.51c.14-1.33-.17-2.48-.92-3.42-2.03-2.51-6.58-2.39-6.9-2.38Z"/>
        <path class="cls-1" d="m76.42,43.66c-2.76,0-5.34,1.21-7.28,3.42-.7.79-1.28,1.68-1.74,2.64-.46-.96-1.04-1.85-1.74-2.64-1.94-2.2-4.52-3.42-7.28-3.42H26.05v47.86l32.18.4c.29.01,7.08.39,7.55,8.22.05.9.12,1.92,1.17,1.92h0c.14,0,.3-.03.45-.11.16.08.33.11.49.11,1.01,0,1.07-1.02,1.13-1.92.47-7.83,7.25-8.21,7.52-8.22l32.21-.4v-47.86h-32.33Zm-7.97,9.47c.33-1.72,1.09-3.28,2.2-4.54,1.54-1.76,3.59-2.72,5.77-2.72h30.26v43.47l-30.19.37c-.06,0-5.11.26-7.85,4.62-.07-3.69-.14-8.87-.21-15.43.08-8.2.14-17.12.18-23.67,0-.7-.05-1.41-.16-2.11Zm-2.09,25.76c-.07,6.61-.13,11.79-.21,15.44-2.74-4.35-7.81-4.62-7.88-4.62l-30.16-.37v-43.47h30.26c2.18,0,4.23.97,5.77,2.72,1.1,1.26,1.86,2.82,2.2,4.54-.11.7-.16,1.41-.16,2.11.04,6.55.1,15.46.18,23.66Z"/>
        <path class="cls-1" d="m72.57,96.6c-.76.94-1.07,2.09-.92,3.42l.06.51,2.05-.28-.05-.48c-.08-.71.06-1.25.43-1.72,1.1-1.36,3.95-1.65,5.33-1.61h23.33v-2.21h-23.29c-.2,0-4.87-.16-6.93,2.38Z"/>
      </g>
      <path class="cls-4" d="m98.27,25.14h-1.89c-.68,0-1.24-.55-1.24-1.24v-1.67c0-.68-.55-1.24-1.24-1.24h-1.45c-.68,0-1.24.55-1.24,1.24v1.67c0,.68-.55,1.24-1.24,1.24h-1.89c-.68,0-1.24.55-1.24,1.24v1.3c0,.68.55,1.24,1.24,1.24h1.89c.68,0,1.24.55,1.24,1.24v1.67c0,.68.55,1.24,1.24,1.24h1.45c.68,0,1.24-.55,1.24-1.24v-1.67c0-.68.55-1.24,1.24-1.24h1.89c.68,0,1.24-.55,1.24-1.24v-1.3c0-.68-.55-1.24-1.24-1.24Z"/>
      <path class="cls-3" d="m76.5,36.34h-.73c-.26,0-.47-.21-.47-.47v-.64c0-.26-.21-.47-.47-.47h-.56c-.26,0-.47.21-.47.47v.64c0,.26-.21.47-.47.47h-.73c-.26,0-.47.21-.47.47v.5c0,.26.21.47.47.47h.73c.26,0,.47.21.47.47v.64c0,.26.21.47.47.47h.56c.26,0,.47-.21.47-.47v-.64c0-.26.21-.47.47-.47h.73c.26,0,.47-.21.47-.47v-.5c0-.26-.21-.47-.47-.47Z"/>
      <path class="cls-5" d="m27.38,104.52l-.82-.74c-.3-.27-.32-.72-.05-1.02l.65-.73c.27-.3.24-.75-.05-1.02l-.63-.57c-.3-.27-.75-.24-1.02.05l-.65.73c-.27.3-.72.32-1.02.05l-.82-.74c-.3-.27-.75-.24-1.02.05l-.51.57c-.27.3-.24.75.05,1.02l.82.74c.3.27.32.72.05,1.02l-.65.73c-.27.3-.24.75.05,1.02l.63.57c.3.27.75.24,1.02-.05l.65-.73c.27-.3.72-.32,1.02-.05l.82.74c.3.27.75.24,1.02-.05l.51-.57c.27-.3.24-.75-.05-1.02Z"/>
    </g>
  </g>
</svg>