<?xml version="1.0" encoding="UTF-8"?>
<svg id="Calque_2" data-name="Calque 2" xmlns="http://www.w3.org/2000/svg" viewBox="0 0 132.2 132.2">
  <defs>
    <style>
      .cls-1 {
        fill: #ffe91a;
      }

      .cls-2 {
        fill: #2e284c;
      }

      .cls-3 {
        fill: #4ae4f4;
      }

      .cls-4 {
        fill: #ab8dff;
      }

      .cls-5 {
        fill: #ff2eab;
      }

      .cls-6 {
        fill: #00d8ae;
      }
    </style>
  </defs>
  <g id="Calque_1-2" data-name="Calque 1">
    <rect class="cls-2" width="132.2" height="132.2" rx="20.8" ry="20.8"/>
    <g>
      <path class="cls-5" d="m88.46,59.53c0-2.93-.44-5.75-1.23-8.42l.07-.03-.1-.06c-3.51-11.6-14-20.2-26.56-20.89l-.16-15.39-2.95.03.16,15.34c-15.64.69-28.15,13.62-28.15,29.43,0,7.95,3.17,15.16,8.3,20.47v16.38h2.95v-13.71c4.66,3.67,10.44,5.98,16.74,6.29v16.28h2.95v-16.28c5.91-.29,11.36-2.34,15.86-5.62v14.01h2.95v-16.48c5.65-5.37,9.18-12.95,9.18-21.34Zm-15.09,22.26v-.3s11.87-25.66,11.87-25.66c.17,1.21.26,2.45.26,3.7,0,9.32-4.84,17.53-12.13,22.26Zm-36.57-30.74l20.94-15.01.1,9.54,2.95-.03-.09-8.46,20.63,13.6-9.43,4.57,1.29,2.66,10.1-4.89-11.89,25.72-4.01-7.68-2.62,1.37,4.24,8.12-21.73-.32,4.04-8.41-2.66-1.28-4.19,8.71-7.39-24.91,6.82,2.71,1.09-2.74-8.18-3.25Zm33.47,32.47c-3.43,1.62-7.25,2.53-11.29,2.53-4.31,0-8.37-1.04-11.97-2.87l23.26.34Zm12.68-35.3l-22.29-14.7v-.44c9.85.62,18.27,6.64,22.29,15.14Zm-26.22-15.1l-22.04,15.81c3.81-8.7,12.16-14.97,22.04-15.81Zm-16.08,45.54c-5.04-4.83-8.18-11.62-8.18-19.13,0-2.31.3-4.55.86-6.68l.25.1,7.84,26.42c-.22-.19-.43-.39-.65-.6v-.11h-.12Z"/>
      <path class="cls-1" d="m66.48,74.66l-7.19-4.07c-.46-.26-1.02-.28-1.5-.05l-7.44,3.62c-1.2.58-2.55-.46-2.28-1.77l1.65-8.1c.11-.52-.05-1.06-.42-1.44l-5.74-5.95c-.93-.96-.35-2.57.98-2.72l8.22-.93c.53-.06.99-.37,1.24-.84l3.89-7.3c.63-1.18,2.33-1.12,2.89.09l3.43,7.52c.22.48.66.83,1.18.92l8.14,1.44c1.31.23,1.79,1.87.81,2.77l-6.1,5.58c-.39.36-.58.89-.51,1.41l1.14,8.19c.18,1.32-1.23,2.28-2.39,1.62Zm-7.09-7.41l3.34,1.89c1.16.66,2.57-.3,2.39-1.62l-.53-3.8c-.07-.52.12-1.05.51-1.41l2.83-2.59c.98-.9.51-2.54-.81-2.77l-3.78-.67c-.52-.09-.96-.44-1.18-.92l-1.59-3.49c-.55-1.21-2.26-1.27-2.89-.09l-1.81,3.39c-.25.47-.71.78-1.24.84l-3.81.43c-1.33.15-1.9,1.76-.98,2.72l2.66,2.76c.37.38.52.92.42,1.44l-.77,3.76c-.27,1.31,1.08,2.35,2.28,1.77l3.45-1.68c.48-.23,1.04-.21,1.5.05Z"/>
      <path class="cls-1" d="m39.47,107.77c-3.55,0-6.43-2.89-6.43-6.43s2.89-6.43,6.43-6.43,6.43,2.89,6.43,6.43-2.89,6.43-6.43,6.43Zm0-9.91c-1.92,0-3.48,1.56-3.48,3.48s1.56,3.48,3.48,3.48,3.48-1.56,3.48-3.48-1.56-3.48-3.48-3.48Z"/>
      <path class="cls-6" d="m58.99,116.05c-3.55,0-6.43-2.89-6.43-6.43s2.89-6.43,6.43-6.43,6.43,2.89,6.43,6.43-2.89,6.43-6.43,6.43Zm0-9.91c-1.92,0-3.48,1.56-3.48,3.48s1.56,3.48,3.48,3.48,3.48-1.56,3.48-3.48-1.56-3.48-3.48-3.48Z"/>
      <path class="cls-1" d="m77.8,107.77c-3.55,0-6.43-2.89-6.43-6.43s2.89-6.43,6.43-6.43,6.43,2.89,6.43,6.43-2.89,6.43-6.43,6.43Zm0-9.91c-1.92,0-3.48,1.56-3.48,3.48s1.56,3.48,3.48,3.48,3.48-1.56,3.48-3.48-1.56-3.48-3.48-3.48Z"/>
      <path class="cls-3" d="m33.79,27.31h-1.39c-.5,0-.91-.41-.91-.91v-1.23c0-.5-.41-.91-.91-.91h-1.06c-.5,0-.91.41-.91.91v1.23c0,.5-.41.91-.91.91h-1.39c-.5,0-.91.41-.91.91v.95c0,.5.41.91.91.91h1.39c.5,0,.91.41.91.91v1.23c0,.5.41.91.91.91h1.06c.5,0,.91-.41.91-.91v-1.23c0-.5.41-.91.91-.91h1.39c.5,0,.91-.41.91-.91v-.95c0-.5-.41-.91-.91-.91Z"/>
      <path class="cls-4" d="m105.53,62.6h-1.39c-.5,0-.91-.41-.91-.91v-1.23c0-.5-.41-.91-.91-.91h-1.06c-.5,0-.91.41-.91.91v1.23c0,.5-.41.91-.91.91h-1.39c-.5,0-.91.41-.91.91v.95c0,.5.41.91.91.91h1.39c.5,0,.91.41.91.91v1.23c0,.5.41.91.91.91h1.06c.5,0,.91-.41.91-.91v-1.23c0-.5.41-.91.91-.91h1.39c.5,0,.91-.41.91-.91v-.95c0-.5-.41-.91-.91-.91Z"/>
      <path class="cls-6" d="m117.41,46.46l-1.31-1.31c-.47-.47-.47-1.24,0-1.71l1.15-1.15c.47-.47.47-1.24,0-1.71l-1-1c-.47-.47-1.24-.47-1.71,0l-1.15,1.15c-.47.47-1.24.47-1.71,0l-1.31-1.31c-.47-.47-1.24-.47-1.71,0l-.9.9c-.47.47-.47,1.24,0,1.71l1.31,1.31c.47.47.47,1.24,0,1.71l-1.15,1.15c-.47.47-.47,1.24,0,1.71l1,1c.47.47,1.24.47,1.71,0l1.15-1.15c.47-.47,1.24-.47,1.71,0l1.31,1.31c.47.47,1.24.47,1.71,0l.9-.9c.47-.47.47-1.24,0-1.71Z"/>
    </g>
  </g>
</svg>