<?xml version="1.0" encoding="UTF-8"?>
<svg id="Calque_2" data-name="Calque 2" xmlns="http://www.w3.org/2000/svg" viewBox="0 0 132.2 132.2">
  <defs>
    <style>
      .cls-1 {
        fill: #ffe91a;
      }

      .cls-2 {
        fill: #2e284c;
      }

      .cls-3 {
        fill: #ab8dff;
      }

      .cls-4 {
        fill: #ff2eab;
      }

      .cls-5 {
        fill: #00d8ae;
      }
    </style>
  </defs>
  <g id="Calque_1-2" data-name="Calque 1">
    <rect class="cls-2" width="132.2" height="132.2" rx="20.8" ry="20.8"/>
    <g>
      <path class="cls-5" d="m91.36,72c0-.06.02-.12.02-.18l-.29-.04c-2.93-2.58-6.76-3.7-10.6-3.05-5.05.86-9.09,4.68-10.28,9.72l.67.24-3.14,1.25v-20.91l.23.32,3.72-2.67-.14.63c4.89,1.71,10.28.37,13.73-3.43,2.62-2.88,3.74-6.71,3.14-10.57l.12-.27c-.05-.03-.11-.05-.17-.08-.01-.06-.01-.12-.03-.18l-.29.03c-3.47-1.8-7.45-1.96-11.02-.39-4.69,2.06-7.69,6.74-7.62,11.92l.7.07-2.38,1.71h0v-.22h-.12l-1.85-3.44.61.22c2.33-4.63,1.69-10.14-1.62-14.05-2.52-2.97-6.17-4.57-10.07-4.48l-.25-.15s-.07.1-.1.15c-.06,0-.12,0-.19,0v.29c-2.24,3.21-2.92,7.14-1.82,10.87,1.44,4.92,5.69,8.49,10.83,9.1l.16-.69,1.66,3.09v9.82l-1.99-.44.57-.32c-1.99-4.78-6.59-7.89-11.72-7.93-3.9-.03-7.49,1.69-9.96,4.72l-.28.09c.01.06.04.12.05.18-.04.05-.08.09-.12.14l.21.2c.98,3.78,3.52,6.85,7.06,8.46,4.67,2.12,10.15,1.22,13.96-2.28l-.41-.57,2.62.58v24.07l-1.54-1.27.65-.03c.41-5.16-2.27-10.03-6.81-12.4-3.46-1.8-7.44-1.91-11.02-.34l-.29-.05c-.02.06-.02.12-.04.18-.06.03-.11.04-.17.07l.1.27c-.85,3.81,0,7.7,2.43,10.75,3.19,4.01,8.48,5.71,13.47,4.33l-.11-.7,3.33,2.75v12.69h2.76v-26.88l4.12-1.64-.29.58c4.33,2.84,9.88,2.84,14.15,0,3.24-2.16,5.25-5.6,5.6-9.49l.18-.23s-.1-.08-.14-.12Zm-13.11-27.12c2.52-1.11,5.27-1.16,7.77-.22.09,2.66-.84,5.25-2.69,7.29-2.47,2.71-6.11,3.91-9.62,3.28l8.98-6.45-1.61-2.24-9.01,6.48c.5-3.56,2.81-6.65,6.18-8.13Zm-18.24,23.48c-2.98,2-6.82,2.35-10.18.82-2.51-1.14-4.38-3.15-5.35-5.63,1.92-1.85,4.47-2.89,7.22-2.87,3.66.03,6.99,1.93,8.86,4.97l-10.8-2.38-.59,2.69,10.84,2.38Zm-.21,24.46c-3.57.42-7.14-1.02-9.43-3.9-1.71-2.15-2.47-4.8-2.2-7.45,2.55-.77,5.29-.53,7.73.74,3.25,1.69,5.34,4.91,5.62,8.47l-8.53-7.04-1.75,2.13,8.56,7.06Zm-.44-52.28l-2.43,1.31,5.26,9.77c-3.46-.96-6.23-3.64-7.26-7.18-.77-2.64-.47-5.38.78-7.73,2.65.25,5.1,1.51,6.88,3.61,2.37,2.8,3.09,6.56,2,9.96l-5.24-9.74Zm24.94,38.96c-3.05,2.03-6.87,2.32-10.13.85l10.27-4.09-1.02-2.56-10.31,4.1c1.35-3.33,4.33-5.77,7.96-6.39,2.71-.46,5.39.15,7.59,1.66-.55,2.61-2.08,4.9-4.37,6.42Z"/>
      <path class="cls-3" d="m40.25,36.48h-1.25c-.45,0-.82-.37-.82-.82v-1.11c0-.45-.37-.82-.82-.82h-.96c-.45,0-.82.37-.82.82v1.11c0,.45-.37.82-.82.82h-1.25c-.45,0-.82.37-.82.82v.86c0,.45.37.82.82.82h1.25c.45,0,.82.37.82.82v1.11c0,.45.37.82.82.82h.96c.45,0,.82-.37.82-.82v-1.11c0-.45.37-.82.82-.82h1.25c.45,0,.82-.37.82-.82v-.86c0-.45-.37-.82-.82-.82Z"/>
      <path class="cls-4" d="m54.75,18.07h-1.7c-.61,0-1.11-.5-1.11-1.11v-1.5c0-.61-.5-1.11-1.11-1.11h-1.3c-.61,0-1.11.5-1.11,1.11v1.5c0,.61-.5,1.11-1.11,1.11h-1.7c-.61,0-1.11.5-1.11,1.11v1.17c0,.61.5,1.11,1.11,1.11h1.7c.61,0,1.11.5,1.11,1.11v1.5c0,.61.5,1.11,1.11,1.11h1.3c.61,0,1.11-.5,1.11-1.11v-1.5c0-.61.5-1.11,1.11-1.11h1.7c.61,0,1.11-.5,1.11-1.11v-1.17c0-.61-.5-1.11-1.11-1.11Z"/>
      <path class="cls-1" d="m89.3,96.61h-1.7c-.61,0-1.11-.5-1.11-1.11v-1.5c0-.61-.5-1.11-1.11-1.11h-1.3c-.61,0-1.11.5-1.11,1.11v1.5c0,.61-.5,1.11-1.11,1.11h-1.7c-.61,0-1.11.5-1.11,1.11v1.17c0,.61.5,1.11,1.11,1.11h1.7c.61,0,1.11.5,1.11,1.11v1.5c0,.61.5,1.11,1.11,1.11h1.3c.61,0,1.11-.5,1.11-1.11v-1.5c0-.61.5-1.11,1.11-1.11h1.7c.61,0,1.11-.5,1.11-1.11v-1.17c0-.61-.5-1.11-1.11-1.11Z"/>
    </g>
  </g>
</svg>