<?xml version="1.0" encoding="UTF-8"?>
<svg id="Calque_2" data-name="Calque 2" xmlns="http://www.w3.org/2000/svg" viewBox="0 0 132.2 132.2">
  <defs>
    <style>
      .cls-1 {
        fill: #ffe91a;
      }

      .cls-2 {
        fill: #2e284c;
      }

      .cls-3 {
        fill: #ab8dff;
      }

      .cls-4 {
        fill: #ff2eab;
      }

      .cls-5 {
        fill: #00d8ae;
      }
    </style>
  </defs>
  <g id="Calque_1-2" data-name="Calque 1">
    <rect class="cls-2" width="132.2" height="132.2" rx="20.8" ry="20.8"/>
    <g>
      <path class="cls-3" d="m66.53,79.56s8.49-12.44,24.17-6.56c0,0,3.45,1.78,2.5,11.93s-15.54,8.3-15.54,8.3l-12.39-7.39,1.26-6.27Z"/>
      <path class="cls-4" d="m91.85,78.75l-.85.76c-4.73,3.97-10.95,3.91-15.66,3.02-3.42-.65-6.62-2.13-9.45-4.16-14.24-10.21-28.72,1.13-28.72,1.13,0,0-2.65,27.49,28.08,30.83,0,0,34.6-6,26.6-31.57Z"/>
      <g>
        <path class="cls-5" d="m77.65,55.01v-4.05c2.37-.43,4.17-2.5,4.17-4.99,0-2.8-2.28-5.08-5.08-5.08h-2.46l.89-5.87c.22-1.42-.19-2.81-1.15-3.93-1.06-1.23-2.63-1.93-4.33-1.93h-10.46c-1.71,0-3.3.72-4.35,1.96-.94,1.12-1.35,2.56-1.12,3.97l.97,5.8h-2.55c-2.8,0-5.08,2.28-5.08,5.08s2.18,4.96,4.9,5.06v3.93c-10.32,4.41-16.43,14.42-16.43,27.12,0,16.4,13.34,29.74,29.74,29.74s29.74-13.34,29.74-29.74c0-11.99-6.78-22.43-17.39-27.07Zm-20.94-20.41c-.09-.54.07-1.09.45-1.53.48-.57,1.24-.9,2.06-.9h10.46c.82,0,1.57.32,2.05.89.38.44.54.98.46,1.52l-.96,6.32h-13.48l-1.05-6.29Zm-6.62,11.37c0-1.15.93-2.08,2.08-2.08h24.57c1.15,0,2.08.93,2.08,2.08s-.93,2.08-2.08,2.08h-24.57c-1.15,0-2.08-.93-2.08-2.08Zm19.61,5.08l-.35,2.29c-.16,1.07-1.24,1.87-2.52,1.87h-4.48c-1.26,0-2.34-.79-2.51-1.85l-.39-2.31h10.24Zm-4.4,57.78c-14.75,0-26.74-12-26.74-26.74,0-11.98,5.95-21.29,15.91-24.9l-.02-.06h.54v-6.08h1.43l.47,2.81c.42,2.52,2.72,4.35,5.47,4.35h4.48c2.74,0,5.1-1.9,5.48-4.42l.42-2.74h1.92v6.08h.44l-.02.06c10.31,3.83,16.97,13.6,16.97,24.9,0,14.75-12,26.74-26.74,26.74Z"/>
        <path class="cls-4" d="m60.2,64.58h-1.38c-.5,0-.9-.4-.9-.9v-1.22c0-.5-.4-.9-.9-.9h-1.05c-.5,0-.9.4-.9.9v1.22c0,.5-.4.9-.9.9h-1.38c-.5,0-.9.4-.9.9v.95c0,.5.4.9.9.9h1.38c.5,0,.9.4.9.9v1.22c0,.5.4.9.9.9h1.05c.5,0,.9-.4.9-.9v-1.22c0-.5.4-.9.9-.9h1.38c.5,0,.9-.4.9-.9v-.95c0-.5-.4-.9-.9-.9Z"/>
        <path class="cls-1" d="m70.16,68.71h-.78c-.28,0-.51-.23-.51-.51v-.69c0-.28-.23-.51-.51-.51h-.6c-.28,0-.51.23-.51.51v.69c0,.28-.23.51-.51.51h-.78c-.28,0-.51.23-.51.51v.54c0,.28.23.51.51.51h.78c.28,0,.51.23.51.51v.69c0,.28.23.51.51.51h.6c.28,0,.51-.23.51-.51v-.69c0-.28.23-.51.51-.51h.78c.28,0,.51-.23.51-.51v-.54c0-.28-.23-.51-.51-.51Z"/>
        <path class="cls-3" d="m95.75,49.67h-1.38c-.5,0-.9-.4-.9-.9v-1.22c0-.5-.4-.9-.9-.9h-1.05c-.5,0-.9.4-.9.9v1.22c0,.5-.4.9-.9.9h-1.38c-.5,0-.9.4-.9.9v.95c0,.5.4.9.9.9h1.38c.5,0,.9.4.9.9v1.22c0,.5.4.9.9.9h1.05c.5,0,.9-.4.9-.9v-1.22c0-.5.4-.9.9-.9h1.38c.5,0,.9-.4.9-.9v-.95c0-.5-.4-.9-.9-.9Z"/>
        <path class="cls-4" d="m45.19,21.88h-1.74c-.63,0-1.14-.51-1.14-1.14v-1.54c0-.63-.51-1.14-1.14-1.14h-1.33c-.63,0-1.14.51-1.14,1.14v1.54c0,.63-.51,1.14-1.14,1.14h-1.74c-.63,0-1.14.51-1.14,1.14v1.19c0,.63.51,1.14,1.14,1.14h1.74c.63,0,1.14.51,1.14,1.14v1.54c0,.63.51,1.14,1.14,1.14h1.33c.63,0,1.14-.51,1.14-1.14v-1.54c0-.63.51-1.14,1.14-1.14h1.74c.63,0,1.14-.51,1.14-1.14v-1.19c0-.63-.51-1.14-1.14-1.14Z"/>
      </g>
    </g>
  </g>
</svg>