<?xml version="1.0" encoding="UTF-8"?>
<svg id="Calque_2" data-name="Calque 2" xmlns="http://www.w3.org/2000/svg" viewBox="0 0 769.72 548.11">
  <defs>
    <style>
      .cls-1 {
        fill: #ffebb5;
      }

      .cls-2 {
        fill: #ffebb6;
      }

      .cls-3 {
        fill: #1d1d3f;
      }

      .cls-4 {
        fill: #aca9d4;
      }

      .cls-5 {
        fill: #c589bb;
      }
    </style>
  </defs>
  <g id="Calque_1-2" data-name="Calque 1">
    <path class="cls-5" d="m504.28,522.23c39.46-11.97,78.16-26.42,115.8-43.25,33.63-15.04,67.64-32.98,89.56-62.58,21.5-29.03,28.88-65.92,34.19-101.65,4.14-27.82,7.32-56.55.33-83.79-8.63-33.66-31.77-61.41-54.25-87.91-49.57-58.44-104.31-120.17-178.89-137.77-42.97-10.14-88.13-4.24-131.12,5.82-91.32,21.38-177.29,61.03-260.66,104-27.49,14.17-55.3,29.11-76.67,51.47C-1,212.16-10.34,284.07,10.96,343.43c21.3,59.36,69.45,106.44,124.88,136.52,55.43,30.08,117.95,44.67,180.34,53.88,60.67,8.96,132.38,14,188.11-11.6"/>
    <path class="cls-3" d="m265.47,72.43c-34.63,16.11-68.24,34.41-100.57,54.74-28.88,18.17-57.74,39.05-73.98,69.06-15.93,29.42-17.9,64.21-18.12,97.67-.17,26.05.65,52.81,10.6,76.88,12.3,29.75,37.14,52.18,61.2,73.56,53.07,47.14,111.31,96.62,182,103.05,40.73,3.71,81.38-7.58,119.49-22.41,80.97-31.5,154.64-79.06,225.5-129.32,23.37-16.58,46.92-33.9,63.61-57.19,34.02-47.49,33.23-114.65,5.97-166.31-27.27-51.66-77.55-88.57-132.3-108.94-54.75-20.37-113.98-25.6-172.4-25.93-56.8-.32-123.23,4.4-171,35.13"/>
    <g>
      <path class="cls-4" d="m349.86,360.99l-5.15-74.51-.35-.03-16.24,72.92-19.09-1.41-9.94-125.17,19.27,1.43,4.71,82.83.35.03,16.68-81.25,16.62,1.23,4.54,82.82.35.03,16.86-81.23,18.74,1.39-28.25,122.34-19.09-1.41Z"/>
      <path class="cls-4" d="m401.47,364.81l9.16-123.76,18.74,1.39-9.16,123.75-18.74-1.39Z"/>
      <path class="cls-4" d="m478.62,263.86l-7.85,106.08-18.74-1.39,7.85-106.08-19.98-1.48,1.31-17.68,58.7,4.34-1.31,17.68-19.98-1.48Z"/>
      <path class="cls-4" d="m565.2,280.58l-.82,11.14-18.1-.45.75-10.08c.73-9.9-2.65-14.59-9.55-15.1-6.9-.51-10.94,3.63-11.54,11.77l-5,67.54c-.6,8.13,2.78,12.83,9.68,13.34,6.89.51,10.93-3.63,11.67-13.54l1.02-13.79,17.97,2.22-1.1,14.85c-1.39,18.74-12.98,28.9-31.37,27.54-18.21-1.35-28.01-13.09-26.62-31.83l5.02-67.89c1.39-18.74,12.81-28.92,31.02-27.57,18.39,1.36,28.36,13.12,26.97,31.86Z"/>
      <path class="cls-4" d="m615.03,380.61l3.99-53.92-22.28-1.65-3.99,53.92-18.74-1.39,9.16-123.76,18.74,1.39-3.86,52.15,22.28,1.65,3.86-52.15,18.74,1.39-9.16,123.75-18.74-1.39Z"/>
      <path class="cls-1" d="m687.51,385.98l1.46-19.8,19.8,1.46-1.46,19.8-19.8-1.46Zm4.22-30.62l4.76-93.15,20.15,1.49-9,92.84-15.91-1.18Z"/>
    </g>
    <g>
      <path class="cls-2" d="m184.36,206.29v9.8h-27.74v-68.63h10.39v58.82h17.35Z"/>
      <path class="cls-2" d="m201.41,157.07v19.41h15.2v9.61h-15.2v20.39h18.82v9.61h-29.21v-68.63h29.21v9.61h-18.82Z"/>
      <path class="cls-2" d="m245.92,157.27v58.82h-10.39v-58.82h-11.08v-9.8h32.55v9.8h-11.08Z"/>
      <path class="cls-2" d="m307.58,162.17v1.96l-10,.98v-2.16c0-4.71-1.76-6.86-5.39-6.86-3.04,0-5.2,1.67-5.2,5.59v1.47c0,3.82,1.96,6.96,8.73,13.14,9.22,8.53,12.35,14.12,12.35,22.06v3.33c0,10.1-6.37,15.39-15.88,15.39s-16.08-5.59-16.08-15.69v-4.51l10-.98v4.71c0,4.61,2.16,6.86,5.88,6.86,3.14,0,5.69-1.67,5.69-6.57v-2.16c0-4.31-1.96-7.45-8.73-13.63-9.22-8.53-12.35-14.12-12.35-21.57v-1.67c0-10.1,5.88-15.39,15.49-15.39s15.49,5.59,15.49,15.69Z"/>
      <path class="cls-2" d="m347.28,147.46c11.18,0,17.25,6.08,17.25,17.35v33.92c0,11.27-6.08,17.35-17.25,17.35h-14.9v-68.63h14.9Zm-4.51,59.02h4.12c5,0,7.25-2.65,7.25-8.43v-32.55c0-5.78-2.25-8.43-7.25-8.43h-4.12v49.41Z"/>
      <path class="cls-2" d="m388.85,187.07h-4.8v29.02h-10.39v-68.63h15c11.18,0,17.25,6.08,17.25,17.35v4.9c0,7.25-2.55,12.35-7.35,15.1l9.51,31.27h-10.98l-8.23-29.02Zm-4.8-9.61h4.22c5,0,7.25-2.65,7.25-8.43v-3.53c0-5.78-2.25-8.43-7.25-8.43h-4.22v20.39Z"/>
      <path class="cls-2" d="m438.25,216.09l-2.25-15.59h-11.47l-2.25,15.59h-10.39l11.86-68.63h13.24l11.86,68.63h-10.59Zm-12.35-25h8.73l-4.22-28.92h-.29l-4.22,28.92Z"/>
      <path class="cls-2" d="m487.27,162.95v4.71l-10,.49v-4.12c0-5.49-2.06-7.94-6.08-7.94s-6.08,2.45-6.08,6.96v37.45c0,4.51,1.96,6.96,5.98,6.96s5.98-2.45,5.98-7.94v-11.76h-5.88v-9.61h16.08v22.45c0,10.39-5.98,16.47-16.37,16.47s-16.18-6.08-16.18-16.47v-37.65c0-10.39,5.88-16.47,16.18-16.47s16.37,6.08,16.37,16.47Z"/>
      <path class="cls-2" d="m539.32,216.09l-13.63-45.49h-.2v45.49h-9.8v-68.63h11.57l12.25,40.88h.2v-40.88h9.8v68.63h-10.2Z"/>
      <path class="cls-2" d="m612.85,147.46c11.18,0,17.25,6.08,17.25,17.35v33.92c0,11.27-6.08,17.35-17.25,17.35h-14.9v-68.63h14.9Zm-4.51,59.02h4.12c5,0,7.25-2.65,7.25-8.43v-32.55c0-5.78-2.25-8.43-7.25-8.43h-4.12v49.41Z"/>
      <path class="cls-2" d="m654.41,187.07h-4.8v29.02h-10.39v-68.63h15c11.18,0,17.25,6.08,17.25,17.35v4.9c0,7.25-2.55,12.35-7.35,15.1l9.51,31.27h-10.98l-8.24-29.02Zm-4.8-9.61h4.22c5,0,7.25-2.65,7.25-8.43v-3.53c0-5.78-2.25-8.43-7.25-8.43h-4.22v20.39Z"/>
      <path class="cls-2" d="m713.53,163.84v35.88c0,10.78-6.37,17.35-16.76,17.35s-16.76-6.57-16.76-17.35v-35.88c0-10.78,6.37-17.35,16.76-17.35s16.76,6.57,16.76,17.35Zm-23.14.1v35.69c0,5.1,2.25,7.84,6.37,7.84s6.37-2.75,6.37-7.84v-35.69c0-5.1-2.25-7.84-6.37-7.84s-6.37,2.75-6.37,7.84Z"/>
      <path class="cls-2" d="m738.62,147.46c11.18,0,17.25,6.08,17.25,17.35v5.49c0,11.27-6.08,17.35-17.25,17.35h-4.61v28.43h-10.39v-68.63h15Zm-4.61,30.59h4.21c5,0,7.25-2.65,7.25-8.43v-4.12c0-5.78-2.25-8.43-7.25-8.43h-4.21v20.98Z"/>
    </g>
    <g>
      <path class="cls-4" d="m179.68,204.68v9.8h-27.74v-68.63h10.39v58.82h17.35Z"/>
      <path class="cls-4" d="m196.73,155.47v19.41h15.2v9.61h-15.2v20.39h18.82v9.61h-29.21v-68.63h29.21v9.61h-18.82Z"/>
      <path class="cls-4" d="m241.24,155.66v58.82h-10.39v-58.82h-11.08v-9.8h32.55v9.8h-11.08Z"/>
      <path class="cls-2" d="m265.16,167.82h-5.39l3.53-10.98h-3.53v-10.98h10.98v10l-5.59,11.96Z"/>
      <path class="cls-4" d="m309.47,160.56v1.96l-10,.98v-2.16c0-4.71-1.76-6.86-5.39-6.86-3.04,0-5.2,1.67-5.2,5.59v1.47c0,3.82,1.96,6.96,8.73,13.14,9.22,8.53,12.35,14.12,12.35,22.06v3.33c0,10.1-6.37,15.39-15.88,15.39s-16.08-5.59-16.08-15.69v-4.51l10-.98v4.71c0,4.61,2.16,6.86,5.88,6.86,3.14,0,5.69-1.67,5.69-6.57v-2.16c0-4.31-1.96-7.45-8.73-13.63-9.22-8.53-12.35-14.12-12.35-21.57v-1.67c0-10.1,5.88-15.39,15.49-15.39s15.49,5.59,15.49,15.69Z"/>
      <path class="cls-4" d="m349.17,145.86c11.18,0,17.25,6.08,17.25,17.35v33.92c0,11.27-6.08,17.35-17.25,17.35h-14.9v-68.63h14.9Zm-4.51,59.02h4.12c5,0,7.25-2.65,7.25-8.43v-32.55c0-5.78-2.25-8.43-7.25-8.43h-4.12v49.41Z"/>
      <path class="cls-4" d="m390.73,185.46h-4.8v29.02h-10.39v-68.63h15c11.18,0,17.25,6.08,17.25,17.35v4.9c0,7.25-2.55,12.35-7.35,15.1l9.51,31.27h-10.98l-8.23-29.02Zm-4.8-9.61h4.22c5,0,7.25-2.65,7.25-8.43v-3.53c0-5.78-2.25-8.43-7.25-8.43h-4.22v20.39Z"/>
      <path class="cls-4" d="m440.14,214.48l-2.25-15.59h-11.47l-2.25,15.59h-10.39l11.86-68.63h13.24l11.86,68.63h-10.59Zm-12.35-25h8.73l-4.22-28.92h-.29l-4.22,28.92Z"/>
      <path class="cls-4" d="m489.16,161.35v4.71l-10,.49v-4.12c0-5.49-2.06-7.94-6.08-7.94s-6.08,2.45-6.08,6.96v37.45c0,4.51,1.96,6.96,5.98,6.96s5.98-2.45,5.98-7.94v-11.76h-5.88v-9.61h16.08v22.45c0,10.39-5.98,16.47-16.37,16.47s-16.18-6.08-16.18-16.47v-37.65c0-10.39,5.88-16.47,16.18-16.47s16.37,6.08,16.37,16.47Z"/>
      <path class="cls-4" d="m541.21,214.48l-13.63-45.49h-.2v45.49h-9.8v-68.63h11.57l12.25,40.88h.2v-40.88h9.8v68.63h-10.2Z"/>
      <path class="cls-2" d="m567.38,167.82h-5.39l3.53-10.98h-3.53v-10.98h10.98v10l-5.59,11.96Z"/>
      <path class="cls-4" d="m616.89,145.86c11.18,0,17.25,6.08,17.25,17.35v33.92c0,11.27-6.08,17.35-17.25,17.35h-14.9v-68.63h14.9Zm-4.51,59.02h4.12c5,0,7.25-2.65,7.25-8.43v-32.55c0-5.78-2.25-8.43-7.25-8.43h-4.12v49.41Z"/>
      <path class="cls-4" d="m658.46,185.46h-4.8v29.02h-10.39v-68.63h15c11.18,0,17.25,6.08,17.25,17.35v4.9c0,7.25-2.55,12.35-7.35,15.1l9.51,31.27h-10.98l-8.24-29.02Zm-4.8-9.61h4.22c5,0,7.25-2.65,7.25-8.43v-3.53c0-5.78-2.25-8.43-7.25-8.43h-4.22v20.39Z"/>
      <path class="cls-4" d="m717.57,162.23v35.88c0,10.78-6.37,17.35-16.76,17.35s-16.76-6.57-16.76-17.35v-35.88c0-10.78,6.37-17.35,16.76-17.35s16.76,6.57,16.76,17.35Zm-23.14.1v35.69c0,5.1,2.25,7.84,6.37,7.84s6.37-2.75,6.37-7.84v-35.69c0-5.1-2.25-7.84-6.37-7.84s-6.37,2.75-6.37,7.84Z"/>
      <path class="cls-4" d="m742.66,145.86c11.18,0,17.25,6.08,17.25,17.35v5.49c0,11.27-6.08,17.35-17.25,17.35h-4.61v28.43h-10.39v-68.63h15Zm-4.61,30.59h4.21c5,0,7.25-2.65,7.25-8.43v-4.12c0-5.78-2.25-8.43-7.25-8.43h-4.21v20.98Z"/>
      <path class="cls-2" d="m764.13,225.46h-5.39l3.53-10.98h-3.53v-10.98h10.98v10l-5.59,11.96Z"/>
    </g>
    <g>
      <path class="cls-1" d="m246.94,456.01v2.71l-4.39.21v-2.45c0-2.41-.9-3.49-2.58-3.49s-2.58,1.08-2.58,3.06v16.44c0,1.98.9,3.06,2.58,3.06s2.58-1.08,2.58-3.49v-3.36l4.39.21v3.62c0,4.56-2.63,7.23-7.1,7.23s-7.02-2.67-7.02-7.23v-16.53c0-4.56,2.58-7.23,7.02-7.23s7.1,2.67,7.1,7.23Z"/>
      <path class="cls-1" d="m263,475.04v4.3h-12.18v-30.13h4.56v25.83h7.62Z"/>
      <path class="cls-1" d="m265.92,479.34v-30.13h4.56v30.13h-4.56Z"/>
      <path class="cls-1" d="m289.03,456.01v2.71l-4.39.21v-2.45c0-2.41-.9-3.49-2.58-3.49s-2.58,1.08-2.58,3.06v16.44c0,1.98.9,3.06,2.58,3.06s2.58-1.08,2.58-3.49v-3.36l4.39.21v3.62c0,4.56-2.63,7.23-7.1,7.23s-7.02-2.67-7.02-7.23v-16.53c0-4.56,2.58-7.23,7.02-7.23s7.1,2.67,7.1,7.23Z"/>
      <path class="cls-1" d="m308.36,479.34h-4.86l-4.48-13.17-1.98,3.87v9.3h-4.56v-30.13h4.56v12.57h.09l6.33-12.57h4.78l-6.2,11.97,6.33,18.17Z"/>
      <path class="cls-1" d="m324.93,453.52v25.83h-4.56v-25.83h-4.86v-4.3h14.29v4.3h-4.86Z"/>
      <path class="cls-1" d="m346.8,456.4v15.75c0,4.74-2.8,7.62-7.36,7.62s-7.36-2.88-7.36-7.62v-15.75c0-4.73,2.8-7.62,7.36-7.62s7.36,2.88,7.36,7.62Zm-10.16.04v15.67c0,2.24.99,3.44,2.8,3.44s2.8-1.21,2.8-3.44v-15.67c0-2.24-.99-3.44-2.8-3.44s-2.8,1.21-2.8,3.44Z"/>
      <path class="cls-1" d="m371.2,455.67v.86l-4.39.43v-.95c0-2.07-.77-3.01-2.37-3.01-1.33,0-2.28.73-2.28,2.45v.65c0,1.68.86,3.06,3.83,5.77,4.05,3.75,5.42,6.2,5.42,9.69v1.46c0,4.43-2.8,6.76-6.97,6.76s-7.06-2.45-7.06-6.89v-1.98l4.39-.43v2.07c0,2.02.95,3.01,2.58,3.01,1.38,0,2.5-.73,2.5-2.88v-.95c0-1.89-.86-3.27-3.83-5.98-4.05-3.74-5.42-6.2-5.42-9.47v-.73c0-4.43,2.58-6.76,6.8-6.76s6.8,2.45,6.8,6.89Z"/>
      <path class="cls-1" d="m381.7,453.52v25.83h-4.56v-25.83h-4.86v-4.3h14.29v4.3h-4.86Z"/>
      <path class="cls-1" d="m397.88,479.34l-.99-6.84h-5.04l-.99,6.84h-4.56l5.21-30.13h5.81l5.21,30.13h-4.65Zm-5.42-10.98h3.83l-1.85-12.7h-.13l-1.85,12.7Z"/>
      <path class="cls-1" d="m412.04,466.6h-2.11v12.74h-4.56v-30.13h6.59c4.91,0,7.58,2.67,7.58,7.62v2.15c0,3.19-1.12,5.42-3.23,6.63l4.18,13.73h-4.82l-3.62-12.74Zm-2.11-4.22h1.85c2.2,0,3.19-1.16,3.19-3.7v-1.55c0-2.54-.99-3.7-3.19-3.7h-1.85v8.95Z"/>
      <path class="cls-1" d="m430.85,453.52v25.83h-4.56v-25.83h-4.86v-4.3h14.29v4.3h-4.86Z"/>
    </g>
    <path class="cls-1" d="m206.83,409.76c7.4,9.57,16.13,18,25.88,25.15.91.67,2.34.15,2.86-.75.62-1.06.16-2.19-.75-2.86-9.45-6.93-17.87-15.23-25.04-24.5-.69-.9-2.23-.73-2.96,0-.88.88-.69,2.06,0,2.96h0Z"/>
    <path class="cls-1" d="m279.65,391.63c3.1,10.02,6.21,20.05,9.31,30.07.79,2.57,4.84,1.47,4.04-1.11-3.1-10.02-6.21-20.05-9.31-30.07-.79-2.57-4.84-1.47-4.04,1.11h0Z"/>
    <path class="cls-1" d="m350.11,430.68c4.41-11.71,8.82-23.41,13.23-35.12.4-1.06-.44-2.3-1.46-2.58-1.18-.32-2.18.4-2.58,1.46-4.41,11.71-8.82,23.41-13.23,35.12-.4,1.06.44,2.3,1.46,2.58,1.18.32,2.18-.4,2.58-1.46h0Z"/>
    <path class="cls-1" d="m434.25,435.14c4.02-7.88,8.83-15.36,14.4-22.24.71-.88.86-2.1,0-2.96-.74-.74-2.25-.88-2.96,0-5.8,7.16-10.86,14.88-15.06,23.09-1.22,2.4,2.39,4.52,3.62,2.11h0Z"/>
    <path class="cls-1" d="m257.58,503.49c-5.74,5.99-11.48,11.97-17.22,17.96-1.87,1.95,1.09,4.91,2.96,2.96,5.74-5.99,11.48-11.97,17.22-17.96,1.87-1.95-1.09-4.91-2.96-2.96h0Z"/>
    <path class="cls-1" d="m356.89,498.1c6.34,11.55,12.69,23.11,19.03,34.66,1.3,2.36,4.92.25,3.62-2.11-6.34-11.55-12.69-23.11-19.03-34.66-1.3-2.36-4.92-.25-3.62,2.11h0Z"/>
    <path class="cls-1" d="m429.63,489.47c7.32,4.77,14.63,9.54,21.95,14.32,2.26,1.48,4.37-2.15,2.11-3.62-7.32-4.77-14.63-9.54-21.95-14.32-2.26-1.48-4.37,2.15-2.11,3.62h0Z"/>
  </g>
</svg>